HIERARCHY
ROOT Hips
{
  OFFSET 368.823 89.7904 194.012
  CHANNELS 6 Xposition Yposition Zposition Zrotation Xrotation Yrotation
  JOINT RightUpLeg
  {
    OFFSET -9.24697 -1.53924 -0.0496539
    CHANNELS 6 Xposition Yposition Zposition Zrotation Xrotation Yrotation
    JOINT RightLeg
    {
      OFFSET 0.0283878 -41.8802 0.059512
      CHANNELS 6 Xposition Yposition Zposition Zrotation Xrotation Yrotation
      JOINT RightFoot
      {
        OFFSET -0.153961 -42.4941 -0.471941
        CHANNELS 6 Xposition Yposition Zposition Zrotation Xrotation Yrotation
        End Site
        {
          OFFSET 0 -7.69 17.5
        }
      }
    }
  }
  JOINT LeftUpLeg
  {
    OFFSET 9.30116 -1.65799 0.0114032
    CHANNELS 6 Xposition Yposition Zposition Zrotation Xrotation Yrotation
    JOINT LeftLeg
    {
      OFFSET 0.0687528 -41.8419 -0.134689
      CHANNELS 6 Xposition Yposition Zposition Zrotation Xrotation Yrotation
      JOINT LeftFoot
      {
        OFFSET 0.405511 -41.1613 0.400562
        CHANNELS 6 Xposition Yposition Zposition Zrotation Xrotation Yrotation
        End Site
        {
          OFFSET 0 -7.69 17.5
        }
      }
    }
  }
  JOINT Spine
  {
    OFFSET 0.0091145 14.298 0.0603898
    CHANNELS 6 Xposition Yposition Zposition Zrotation Xrotation Yrotation
    JOINT Spine1
    {
      OFFSET 0.0250381 9.72798 0.0263342
      CHANNELS 6 Xposition Yposition Zposition Zrotation Xrotation Yrotation
      JOINT Spine2
      {
        OFFSET 0.0413849 10.1204 0.00142431
        CHANNELS 6 Xposition Yposition Zposition Zrotation Xrotation Yrotation
        JOINT Spine3
        {
          OFFSET 0.0354071 9.71597 0.00651291
          CHANNELS 6 Xposition Yposition Zposition Zrotation Xrotation Yrotation
          JOINT Neck
          {
            OFFSET 0.0870676 10.384 0.0467615
            CHANNELS 6 Xposition Yposition Zposition Zrotation Xrotation Yrotation
            JOINT Head
            {
              OFFSET 0.0745361 9.47268 0.0242942
              CHANNELS 6 Xposition Yposition Zposition Zrotation Xrotation Yrotation
              End Site
              {
                OFFSET 0 15.95 0
              }
            }
          }
          JOINT RightShoulder
          {
            OFFSET -3.16517 6.93033 0.0283062
            CHANNELS 6 Xposition Yposition Zposition Zrotation Xrotation Yrotation
            JOINT RightArm
            {
              OFFSET -12.7589 0.0216905 0.0632467
              CHANNELS 6 Xposition Yposition Zposition Zrotation Xrotation Yrotation
              JOINT RightForeArm
              {
                OFFSET -26.5059 -0.0491731 0.0567862
                CHANNELS 6 Xposition Yposition Zposition Zrotation Xrotation Yrotation
                JOINT RightHand
                {
                  OFFSET -25.9833 -0.0526551 -0.00138994
                  CHANNELS 6 Xposition Yposition Zposition Zrotation Xrotation Yrotation
                  JOINT RightHandThumb1
                  {
                    OFFSET -2.48905 0.190105 3.12053
                    CHANNELS 6 Xposition Yposition Zposition Zrotation Xrotation Yrotation
                    JOINT RightHandThumb2
                    {
                      OFFSET -3.68274 0 0
                      CHANNELS 6 Xposition Yposition Zposition Zrotation Xrotation Yrotation
                      JOINT RightHandThumb3
                      {
                        OFFSET -2.55832 0 0
                        CHANNELS 6 Xposition Yposition Zposition Zrotation Xrotation Yrotation
                        End Site
                        {
                          OFFSET -2.194 0 0
                        }
                      }
                    }
                  }
                  JOINT RightInHandIndex
                  {
                    OFFSET -3.22368 0.508421 1.97842
                    CHANNELS 6 Xposition Yposition Zposition Zrotation Xrotation Yrotation
                    JOINT RightHandIndex1
                    {
                      OFFSET -5.21684 -0.091368 0.999158
                      CHANNELS 6 Xposition Yposition Zposition Zrotation Xrotation Yrotation
                      JOINT RightHandIndex2
                      {
                        OFFSET -3.61937 0 0
                        CHANNELS 6 Xposition Yposition Zposition Zrotation Xrotation Yrotation
                        JOINT RightHandIndex3
                        {
                          OFFSET -2.0521 0 0
                          CHANNELS 6 Xposition Yposition Zposition Zrotation Xrotation Yrotation
                          End Site
                          {
                            OFFSET -1.805 0 0
                          }
                        }
                      }
                    }
                  }
                  JOINT RightInHandMiddle
                  {
                    OFFSET -3.38211 0.517263 0.756737
                    CHANNELS 6 Xposition Yposition Zposition Zrotation Xrotation Yrotation
                    JOINT RightHandMiddle1
                    {
                      OFFSET -5.17411 -0.084 0.313895
                      CHANNELS 6 Xposition Yposition Zposition Zrotation Xrotation Yrotation
                      JOINT RightHandMiddle2
                      {
                        OFFSET -3.94947 0 0
                        CHANNELS 6 Xposition Yposition Zposition Zrotation Xrotation Yrotation
                        JOINT RightHandMiddle3
                        {
                          OFFSET -2.47579 0 0
                          CHANNELS 6 Xposition Yposition Zposition Zrotation Xrotation Yrotation
                          End Site
                          {
                            OFFSET -1.975 0 0
                          }
                        }
                      }
                    }
                  }
                  JOINT RightInHandRing
                  {
                    OFFSET -3.36516 0.537895 -0.128947
                    CHANNELS 6 Xposition Yposition Zposition Zrotation Xrotation Yrotation
                    JOINT RightHandRing1
                    {
                      OFFSET -4.63474 -0.022105 -0.478947
                      CHANNELS 6 Xposition Yposition Zposition Zrotation Xrotation Yrotation
                      JOINT RightHandRing2
                      {
                        OFFSET -3.44238 0 0
                        CHANNELS 6 Xposition Yposition Zposition Zrotation Xrotation Yrotation
                        JOINT RightHandRing3
                        {
                          OFFSET -2.3881 0 0
                          CHANNELS 6 Xposition Yposition Zposition Zrotation Xrotation Yrotation
                          End Site
                          {
                            OFFSET -1.857 0 0
                          }
                        }
                      }
                    }
                  }
                  JOINT RightInHandPinky
                  {
                    OFFSET -3.16105 0.469368 -1.20179
                    CHANNELS 6 Xposition Yposition Zposition Zrotation Xrotation Yrotation
                    JOINT RightHandPinky1
                    {
                      OFFSET -4.14105 -0.022105 -1.09053
                      CHANNELS 6 Xposition Yposition Zposition Zrotation Xrotation Yrotation
                      JOINT RightHandPinky2
                      {
                        OFFSET -2.75653 0 0
                        CHANNELS 6 Xposition Yposition Zposition Zrotation Xrotation Yrotation
                        JOINT RightHandPinky3
                        {
                          OFFSET -1.74189 0 0
                          CHANNELS 6 Xposition Yposition Zposition Zrotation Xrotation Yrotation
                          End Site
                          {
                            OFFSET -1.645 0 0
                          }
                        }
                      }
                    }
                  }
                }
              }
            }
          }
          JOINT LeftShoulder
          {
            OFFSET 3.24114 6.91832 -0.026884
            CHANNELS 6 Xposition Yposition Zposition Zrotation Xrotation Yrotation
            JOINT LeftArm
            {
              OFFSET 12.8361 -0.0279601 -0.0585021
              CHANNELS 6 Xposition Yposition Zposition Zrotation Xrotation Yrotation
              JOINT LeftForeArm
              {
                OFFSET 26.5 -0.0576259 -0.0651161
                CHANNELS 6 Xposition Yposition Zposition Zrotation Xrotation Yrotation
                JOINT LeftHand
                {
                  OFFSET 25.9904 -0.0384179 -0.0536179
                  CHANNELS 6 Xposition Yposition Zposition Zrotation Xrotation Yrotation
                  JOINT LeftHandThumb1
                  {
                    OFFSET 2.48905 0.190105 3.12053
                    CHANNELS 6 Xposition Yposition Zposition Zrotation Xrotation Yrotation
                    JOINT LeftHandThumb2
                    {
                      OFFSET 3.68274 0 0
                      CHANNELS 6 Xposition Yposition Zposition Zrotation Xrotation Yrotation
                      JOINT LeftHandThumb3
                      {
                        OFFSET 2.55832 0 0
                        CHANNELS 6 Xposition Yposition Zposition Zrotation Xrotation Yrotation
                        End Site
                        {
                          OFFSET 2.194 0 0
                        }
                      }
                    }
                  }
                  JOINT LeftInHandIndex
                  {
                    OFFSET 3.22368 0.508421 1.97842
                    CHANNELS 6 Xposition Yposition Zposition Zrotation Xrotation Yrotation
                    JOINT LeftHandIndex1
                    {
                      OFFSET 5.21684 -0.091368 0.999158
                      CHANNELS 6 Xposition Yposition Zposition Zrotation Xrotation Yrotation
                      JOINT LeftHandIndex2
                      {
                        OFFSET 3.61937 0 0
                        CHANNELS 6 Xposition Yposition Zposition Zrotation Xrotation Yrotation
                        JOINT LeftHandIndex3
                        {
                          OFFSET 2.0521 0 0
                          CHANNELS 6 Xposition Yposition Zposition Zrotation Xrotation Yrotation
                          End Site
                          {
                            OFFSET 1.805 0 0
                          }
                        }
                      }
                    }
                  }
                  JOINT LeftInHandMiddle
                  {
                    OFFSET 3.38211 0.517263 0.756737
                    CHANNELS 6 Xposition Yposition Zposition Zrotation Xrotation Yrotation
                    JOINT LeftHandMiddle1
                    {
                      OFFSET 5.17411 -0.084 0.313895
                      CHANNELS 6 Xposition Yposition Zposition Zrotation Xrotation Yrotation
                      JOINT LeftHandMiddle2
                      {
                        OFFSET 3.94947 0 0
                        CHANNELS 6 Xposition Yposition Zposition Zrotation Xrotation Yrotation
                        JOINT LeftHandMiddle3
                        {
                          OFFSET 2.47579 0 0
                          CHANNELS 6 Xposition Yposition Zposition Zrotation Xrotation Yrotation
                          End Site
                          {
                            OFFSET 1.975 0 0
                          }
                        }
                      }
                    }
                  }
                  JOINT LeftInHandRing
                  {
                    OFFSET 3.36516 0.537895 -0.128947
                    CHANNELS 6 Xposition Yposition Zposition Zrotation Xrotation Yrotation
                    JOINT LeftHandRing1
                    {
                      OFFSET 4.63474 -0.022105 -0.478947
                      CHANNELS 6 Xposition Yposition Zposition Zrotation Xrotation Yrotation
                      JOINT LeftHandRing2
                      {
                        OFFSET 3.44238 0 0
                        CHANNELS 6 Xposition Yposition Zposition Zrotation Xrotation Yrotation
                        JOINT LeftHandRing3
                        {
                          OFFSET 2.3881 0 0
                          CHANNELS 6 Xposition Yposition Zposition Zrotation Xrotation Yrotation
                          End Site
                          {
                            OFFSET 1.857 0 0
                          }
                        }
                      }
                    }
                  }
                  JOINT LeftInHandPinky
                  {
                    OFFSET 3.16105 0.469368 -1.20179
                    CHANNELS 6 Xposition Yposition Zposition Zrotation Xrotation Yrotation
                    JOINT LeftHandPinky1
                    {
                      OFFSET 4.14105 -0.022105 -1.09053
                      CHANNELS 6 Xposition Yposition Zposition Zrotation Xrotation Yrotation
                      JOINT LeftHandPinky2
                      {
                        OFFSET 2.75653 0 0
                        CHANNELS 6 Xposition Yposition Zposition Zrotation Xrotation Yrotation
                        JOINT LeftHandPinky3
                        {
                          OFFSET 1.74189 0 0
                          CHANNELS 6 Xposition Yposition Zposition Zrotation Xrotation Yrotation
                          End Site
                          {
                            OFFSET 1.645 0 0
                          }
                        }
                      }
                    }
                  }
                }
              }
            }
          }
        }
      }
    }
  }
}
MOTION
Frames:	3
Frame Time:	0.00833333
368.823 89.7904 194.012 27.6161 12.8366 -69.807 -9.24697 -1.53924 -0.0496539 -12.8431 -55.3479 -13.8306 0.0283878 -41.8802 0.059512 -1.6544 26.8687 -14.7996 -0.153961 -42.4941 -0.471941 8.08411 1.69445 28.6282 9.30116 -1.65799 0.0114032 9.22147 -47.7219 0.46272 0.0687528 -41.8419 -0.134689 4.92759 32.6013 -0.9679 0.405511 -41.1613 0.400562 -10.4812 -13.1918 -17.7892 0.0091145 14.298 0.0603898 -8.21932 10.6985 16.5981 0.0250381 9.72798 0.0263342 -1.77274 2.93958 3.98966 0.0413849 10.1204 0.00142431 -2.95214 4.78776 6.45786 0.0354071 9.71597 0.00651291 -0.197057 -0.275494 -0.518306 0.0870676 10.384 0.0467615 -0.197195 -0.280534 -0.517808 0.0745361 9.47268 0.0242942 -3.96218 -5.04562 -9.18102 -3.16517 6.93033 0.0283062 3.31659 -11.1012 22.5988 -12.7589 0.0216905 0.0632467 73.7841 0.0284547 51.0388 -26.5059 -0.0491731 0.0567862 34.8737 -55.6497 23.2672 -25.9833 -0.0526551 -0.00138994 9.92618 -20.7639 -18.881 -2.48905 0.190105 3.12053 28.184 10.7294 19.1592 -3.68274 0 5.68434e-14 1.2066e-14 4.32357e-15 -10 -2.55832 0 -5.68434e-14 1.66388e-14 2.78299e-15 -10 -3.22368 0.508421 1.97842 1.59028e-14 0 4.77083e-15 -5.21684 -0.091368 0.999158 19.9818 0.871897 2.3964 -3.61937 1.42109e-14 -2.84217e-14 24 2.23633e-15 2.54444e-14 -2.0521 1.42109e-14 0 20 6.36111e-15 4.92986e-14 -3.38211 0.517263 0.756737 1.59028e-14 0 4.77083e-15 -5.17411 -0.084 0.313895 20 -3.97569e-15 1.27222e-14 -3.94947 7.10543e-15 2.84217e-14 24 9.14409e-15 2.8625e-14 -2.47579 1.42109e-14 -2.84217e-14 20 -4.77083e-15 2.54444e-14 -3.36516 0.537895 -0.128947 1.59028e-14 0 4.77083e-15 -4.63474 -0.022105 -0.478947 19.9748 -1.02565 -2.81938 -3.44238 0 -2.84217e-14 24 1.04362e-14 1.27222e-14 -2.3881 1.42109e-14 5.68434e-14 20 1.51076e-14 4.45278e-14 -3.16105 0.469368 -1.20179 1.59028e-14 0 4.77083e-15 -4.14105 -0.022105 -1.09053 19.7815 -3.00948 -8.30515 -2.75653 2.84217e-14 -8.52651e-14 24 -1.19271e-15 1.27222e-14 -1.74189 0 -2.84217e-14 20 1.51076e-14 3.49861e-14 3.24114 6.91832 -0.026884 8.1111 -12.6667 -28.193 12.8361 -0.0279601 -0.0585021 -31.2101 36.0667 -70.8998 26.5 -0.0576259 -0.0651161 14.713 -57.3018 16.7531 25.9904 -0.0384179 -0.0536179 -21.7799 -23.0691 10.8777 2.48905 0.190105 3.12053 -28.184 10.7294 -19.1592 3.68274 0 -2.84217e-14 -8.00641e-15 -9.54166e-15 10 2.55832 0 0 7.58087e-15 -6.36111e-15 10 3.22368 0.508421 1.97842 -6.36111e-15 -6.36111e-15 -4.77083e-15 5.21684 -0.091368 0.999158 -19.9818 0.871897 -2.3964 3.61937 -5.68434e-14 0 -24 -6.36111e-15 -9.54166e-15 2.0521 0 -5.68434e-14 -20 1.04517e-15 3.18055e-15 3.38211 0.517263 0.756737 -6.36111e-15 -6.36111e-15 -4.77083e-15 5.17411 -0.084 0.313895 -20 -9.54166e-15 -6.36111e-15 3.94947 5.68434e-14 0 -24 -3.18055e-15 -3.18055e-15 2.47579 2.84217e-14 0 -20 2.28602e-15 -1.27222e-14 3.36516 0.537895 -0.128947 -6.36111e-15 -6.36111e-15 -4.77083e-15 4.63474 -0.022105 -0.478947 -19.9748 -1.02565 2.81938 3.44238 0 -2.84217e-14 -24 3.18055e-15 -1.27222e-14 2.3881 0 0 -20 -3.37934e-15 6.36111e-15 3.16105 0.469368 -1.20179 -6.36111e-15 -6.36111e-15 -4.77083e-15 4.14105 -0.022105 -1.09053 -19.7815 -3.00948 8.30515 2.75653 5.68434e-14 0 -24 -7.95139e-16 -0 1.74189 2.84217e-14 0 -20 5.56597e-15 -9.54166e-15 
368.856 89.777 194.021 27.6246 12.635 -70.223 -9.24587 -1.52383 -0.0231188 -12.443 -55.3933 -13.2495 0.0284346 -41.8811 0.0631231 -1.71264 26.7802 -14.6755 -0.17747 -42.496 -0.4688 8.03735 1.85169 28.6388 9.30262 -1.67197 -0.0169306 9.46973 -47.5911 1.07209 0.0732307 -41.8412 -0.136291 4.88794 32.6761 -1.07169 0.408244 -41.1395 0.435747 -10.4074 -13.2799 -17.6884 0.0386613 14.2979 0.0708806 -8.2921 10.6675 16.7406 0.0322044 9.72802 0.0265582 -1.78961 2.93628 4.02446 0.0415251 10.1204 0.000468724 -2.97894 4.78336 6.5104 0.0353406 9.71596 0.00591901 -0.20369 -0.275296 -0.512549 0.0938264 10.3839 0.0461593 -0.203833 -0.280183 -0.51202 0.0781775 9.47273 0.0242325 -4.07707 -5.03398 -9.07748 -3.16408 6.93025 0.0289018 3.34253 -10.8944 22.5567 -12.7543 0.0217807 0.0652343 74.105 -0.360433 50.8861 -26.5059 -0.0577999 0.0499654 35.8479 -55.3469 24.4074 -25.9836 -0.0335742 -0.0196851 10.0784 -20.8273 -18.8193 -2.48905 0.190105 3.12053 28.184 10.7294 19.1592 -3.68274 -1.42109e-14 5.68434e-14 -8.91501e-15 -1.39274e-14 -10 -2.55832 7.10543e-15 0 -2.40094e-14 -7.95139e-15 -10 -3.22368 0.508421 1.97842 -3.18055e-15 0 -4.77083e-15 -5.21684 -0.091368 0.999158 19.9818 0.871897 2.3964 -3.61937 -7.10543e-15 0 24 5.1684e-15 -3.18055e-14 -2.0521 1.42109e-14 5.68434e-14 20 -1.35174e-14 -5.88403e-14 -3.38211 0.517263 0.756737 -3.18055e-15 0 -4.77083e-15 -5.17411 -0.084 0.313895 20 -3.18055e-15 -1.11319e-14 -3.94947 0 0 24 -1.13059e-14 -3.18055e-14 -2.47579 -1.42109e-14 2.84217e-14 20 7.95139e-16 -5.08889e-14 -3.36516 0.537895 -0.128947 -3.18055e-15 0 -4.77083e-15 -4.63474 -0.022105 -0.478947 19.9748 -1.02565 -2.81938 -3.44238 0 0 24 -1.43622e-14 -2.8625e-14 -2.3881 -1.42109e-14 -2.84217e-14 20 -2.14687e-14 -6.04305e-14 -3.16105 0.469368 -1.20179 -3.18055e-15 0 -4.77083e-15 -4.14105 -0.022105 -1.09053 19.7815 -3.00948 -8.30515 -2.75653 2.84217e-14 -2.84217e-14 24 -6.36111e-15 -1.90833e-14 -1.74189 -2.84217e-14 5.68434e-14 20 -1.74931e-14 -3.81667e-14 3.24135 6.91836 -0.0263764 8.16496 -12.6724 -28.2837 12.8367 -0.0267404 -0.0588819 -31.138 36.13 -71.0374 26.4998 -0.0581385 -0.0660774 14.8357 -56.8245 16.8272 25.9908 -0.00150137 -0.102572 -21.972 -24.0022 10.6447 2.48905 0.190105 3.12053 -28.184 10.7294 -19.1592 3.68274 0 2.84217e-14 -3.36491e-15 1.90833e-14 10 2.55832 0 5.68434e-14 8.56722e-15 6.36111e-15 10 3.22368 0.508421 1.97842 0 3.18055e-15 -0 5.21684 -0.091368 0.999158 -19.9818 0.871897 -2.3964 3.61937 5.68434e-14 0 -24 -7.95139e-15 6.36111e-15 2.0521 -1.42109e-14 0 -20 -5.77718e-15 1.59028e-14 3.38211 0.517263 0.756737 0 3.18055e-15 -0 5.17411 -0.084 0.313895 -20 -3.18055e-15 -6.36111e-15 3.94947 0 0 -24 -1.59028e-15 -0 2.47579 -2.84217e-14 2.84217e-14 -20 -6.26172e-15 1.59028e-14 3.36516 0.537895 -0.128947 0 3.18055e-15 -0 4.63474 -0.022105 -0.478947 -19.9748 -1.02565 2.81938 3.44238 0 2.84217e-14 -24 1.59028e-15 6.36111e-15 2.3881 0 5.68434e-14 -20 -1.98785e-16 1.27222e-14 3.16105 0.469368 -1.20179 0 3.18055e-15 -0 4.14105 -0.022105 -1.09053 -19.7815 -3.00948 8.30515 2.75653 0 -5.68434e-14 -24 -2.38542e-15 9.54166e-15 1.74189 -2.84217e-14 2.84217e-14 -20 -6.75868e-15 2.54444e-14 
368.892 89.7679 194.032 27.6278 12.532 -70.4321 -9.24495 -1.52549 -0.0292804 -12.2565 -55.4216 -13.0331 0.028506 -41.8819 0.065208 -1.76987 26.6968 -14.5582 -0.201725 -42.4979 -0.4686 8.00736 1.9665 28.6593 9.30368 -1.67175 -0.0126747 9.57254 -47.5388 1.28008 0.0812002 -41.8408 -0.142728 4.80356 32.773 -1.09412 0.410635 -41.123 0.469654 -10.3255 -13.3703 -17.5612 0.0355021 14.2979 0.0711496 -8.27379 10.6399 16.7382 0.0313032 9.72806 0.0267471 -1.7858 2.92628 4.02487 0.0416827 10.1203 -0.000588186 -2.97268 4.7685 6.51122 0.0353017 9.71596 0.00525809 -0.210604 -0.275124 -0.505853 0.0996104 10.3838 0.0454457 -0.210753 -0.279854 -0.505298 0.0822424 9.47277 0.0241673 -4.19688 -5.02983 -8.95704 -3.16293 6.93018 0.0291399 3.3802 -10.6967 22.5132 -12.7767 0.00125702 0.0456354 74.1149 -0.367991 50.867 -26.5059 -0.0427145 0.0207555 36.9668 -55.533 25.8068 -25.9838 -0.0326978 -0.0201912 10.1518 -20.782 -18.8137 -2.48905 0.190105 3.12053 28.184 10.7294 19.1592 -3.68274 1.42109e-14 0 1.30981e-14 1.01877e-15 -10 -2.55832 0 -5.68434e-14 2.5286e-15 -3.97569e-15 -10 -3.22368 0.508421 1.97842 0 0 -4.77083e-15 -5.21684 -0.091368 0.999158 19.9818 0.871897 2.3964 -3.61937 0 -5.68434e-14 24 -5.11871e-15 -7.95139e-15 -2.0521 1.42109e-14 0 20 -7.95139e-16 -3.33958e-14 -3.38211 0.517263 0.756737 0 0 -4.77083e-15 -5.17411 -0.084 0.313895 20 7.95139e-16 3.18055e-15 -3.94947 -1.42109e-14 0 24 -5.29264e-15 -3.18055e-15 -2.47579 -1.42109e-14 -5.68434e-14 20 -4.77083e-15 -1.59028e-14 -3.36516 0.537895 -0.128947 0 0 -4.77083e-15 -4.63474 -0.022105 -0.478947 19.9748 -1.02565 -2.81938 -3.44238 -1.42109e-14 -5.68434e-14 24 3.85145e-15 6.36111e-15 -2.3881 -2.84217e-14 0 20 -5.56597e-15 -1.27222e-14 -3.16105 0.469368 -1.20179 0 0 -4.77083e-15 -4.14105 -0.022105 -1.09053 19.7815 -3.00948 -8.30515 -2.75653 0 0 24 5.1684e-15 6.36111e-15 -1.74189 0 0 20 -2.38542e-15 -9.54166e-15 3.24164 6.91841 -0.0260406 8.21572 -12.675 -28.3681 12.8373 -0.0255792 -0.0592949 -31.099 36.1998 -71.1488 26.4996 -0.0586282 -0.0670602 14.921 -56.3093 16.8362 25.9897 0.00554721 -0.115698 -21.8952 -24.3822 10.6158 2.48905 0.190105 3.12053 -28.184 10.7294 -19.1592 3.68274 0 0 4.35126e-15 -6.36111e-15 10 2.55832 2.84217e-14 -5.68434e-14 3.79044e-15 -3.18055e-15 10 3.22368 0.508421 1.97842 0 3.18055e-15 -0 5.21684 -0.091368 0.999158 -19.9818 0.871897 -2.3964 3.61937 0 0 -24 0 -3.18055e-15 2.0521 -1.42109e-14 -5.68434e-14 -20 4.96962e-15 -0 3.38211 0.517263 0.756737 0 3.18055e-15 -0 5.17411 -0.084 0.313895 -20 3.18055e-15 -6.36111e-15 3.94947 0 -2.84217e-14 -24 -7.95139e-15 -1.59028e-14 2.47579 2.84217e-14 0 -20 1.68967e-15 -6.36111e-15 3.36516 0.537895 -0.128947 0 3.18055e-15 -0 4.63474 -0.022105 -0.478947 -19.9748 -1.02565 2.81938 3.44238 0 5.68434e-14 -24 7.95139e-15 -9.54166e-15 2.3881 2.84217e-14 0 -20 -1.98785e-15 -1.27222e-14 3.16105 0.469368 -1.20179 0 3.18055e-15 -0 4.14105 -0.022105 -1.09053 -19.7815 -3.00948 8.30515 2.75653 0 0 -24 7.95139e-16 -3.18055e-15 1.74189 -2.84217e-14 5.68434e-14 -20 -7.95139e-16 -0 
